<svg width="16" height="16" viewBox="0 0 16 16" fill="none" xmlns="http://www.w3.org/2000/svg">
<g id="more_horiz_24px">
<path id="icon/navigation/more_horiz_24px" fill-rule="evenodd" clip-rule="evenodd" d="M3.99984 6.66667C3.2665 6.66667 2.6665 7.26667 2.6665 8.00001C2.6665 8.73334 3.2665 9.33334 3.99984 9.33334C4.73317 9.33334 5.33317 8.73334 5.33317 8.00001C5.33317 7.26667 4.73317 6.66667 3.99984 6.66667ZM11.9998 6.66667C11.2665 6.66667 10.6665 7.26667 10.6665 8.00001C10.6665 8.73334 11.2665 9.33334 11.9998 9.33334C12.7332 9.33334 13.3332 8.73334 13.3332 8.00001C13.3332 7.26667 12.7332 6.66667 11.9998 6.66667ZM6.6665 8.00001C6.6665 7.26667 7.2665 6.66667 7.99984 6.66667C8.73317 6.66667 9.33317 7.26667 9.33317 8.00001C9.33317 8.73334 8.73317 9.33334 7.99984 9.33334C7.2665 9.33334 6.6665 8.73334 6.6665 8.00001Z" fill="#4F4F4F"/>
</g>
</svg>
