<svg width="658" height="15" viewBox="0 0 658 15" fill="none" xmlns="http://www.w3.org/2000/svg">
<path d="M253.812 0.431999V2.2H250.332V12H248.18V2.2H244.684V0.431999H253.812Z" fill="#4F4F4F"/>
<path d="M256.943 3.664C257.556 3.664 258.111 3.76267 258.607 3.96C259.108 4.15733 259.535 4.43733 259.887 4.8C260.239 5.16267 260.511 5.60533 260.703 6.128C260.895 6.65067 260.991 7.23467 260.991 7.88C260.991 8.53067 260.895 9.11733 260.703 9.64C260.511 10.1627 260.239 10.608 259.887 10.976C259.535 11.344 259.108 11.6267 258.607 11.824C258.111 12.0213 257.556 12.12 256.943 12.12C256.329 12.12 255.772 12.0213 255.271 11.824C254.769 11.6267 254.34 11.344 253.983 10.976C253.631 10.608 253.356 10.1627 253.159 9.64C252.967 9.11733 252.871 8.53067 252.871 7.88C252.871 7.23467 252.967 6.65067 253.159 6.128C253.356 5.60533 253.631 5.16267 253.983 4.8C254.34 4.43733 254.769 4.15733 255.271 3.96C255.772 3.76267 256.329 3.664 256.943 3.664ZM256.943 10.6C257.625 10.6 258.129 10.3707 258.455 9.912C258.785 9.45333 258.951 8.78133 258.951 7.896C258.951 7.01067 258.785 6.336 258.455 5.872C258.129 5.408 257.625 5.176 256.943 5.176C256.249 5.176 255.737 5.41067 255.407 5.88C255.076 6.344 254.911 7.016 254.911 7.896C254.911 8.776 255.076 9.448 255.407 9.912C255.737 10.3707 256.249 10.6 256.943 10.6Z" fill="#4F4F4F"/>
<path d="M268.308 12C268.052 12 267.884 11.88 267.804 11.64L267.644 10.848C267.474 11.04 267.295 11.2133 267.108 11.368C266.922 11.5227 266.719 11.656 266.5 11.768C266.287 11.88 266.055 11.9653 265.804 12.024C265.559 12.088 265.292 12.12 265.004 12.12C264.556 12.12 264.146 12.0267 263.772 11.84C263.399 11.6533 263.076 11.384 262.804 11.032C262.538 10.6747 262.33 10.2347 262.18 9.712C262.036 9.18933 261.964 8.592 261.964 7.92C261.964 7.312 262.047 6.74667 262.212 6.224C262.378 5.70133 262.615 5.248 262.924 4.864C263.234 4.48 263.604 4.18133 264.036 3.968C264.468 3.74933 264.954 3.64 265.492 3.64C265.951 3.64 266.343 3.71467 266.668 3.864C266.994 4.008 267.284 4.20267 267.54 4.448V0.112H269.516V12H268.308ZM265.676 10.552C266.087 10.552 266.436 10.4667 266.724 10.296C267.012 10.1253 267.284 9.88267 267.54 9.568V5.888C267.316 5.616 267.071 5.424 266.804 5.312C266.543 5.2 266.26 5.144 265.956 5.144C265.658 5.144 265.386 5.2 265.14 5.312C264.9 5.424 264.695 5.59467 264.524 5.824C264.359 6.048 264.231 6.336 264.14 6.688C264.05 7.03467 264.004 7.44533 264.004 7.92C264.004 8.4 264.042 8.808 264.116 9.144C264.196 9.47467 264.308 9.74667 264.452 9.96C264.596 10.168 264.772 10.32 264.98 10.416C265.188 10.5067 265.42 10.552 265.676 10.552Z" fill="#4F4F4F"/>
<path d="M278.089 12H277.201C277.015 12 276.868 11.9733 276.761 11.92C276.655 11.8613 276.575 11.7467 276.521 11.576L276.345 10.992C276.137 11.1787 275.932 11.344 275.729 11.488C275.532 11.6267 275.327 11.744 275.113 11.84C274.9 11.936 274.673 12.008 274.433 12.056C274.193 12.104 273.927 12.128 273.633 12.128C273.287 12.128 272.967 12.0827 272.673 11.992C272.38 11.896 272.127 11.7547 271.913 11.568C271.705 11.3813 271.543 11.1493 271.425 10.872C271.308 10.5947 271.249 10.272 271.249 9.904C271.249 9.59467 271.329 9.29067 271.489 8.992C271.655 8.688 271.927 8.416 272.305 8.176C272.684 7.93067 273.188 7.728 273.817 7.568C274.447 7.408 275.228 7.31733 276.161 7.296V6.816C276.161 6.26667 276.044 5.86133 275.809 5.6C275.58 5.33333 275.244 5.2 274.801 5.2C274.481 5.2 274.215 5.23733 274.001 5.312C273.788 5.38667 273.601 5.472 273.441 5.568C273.287 5.65867 273.143 5.74133 273.009 5.816C272.876 5.89067 272.729 5.928 272.569 5.928C272.436 5.928 272.321 5.89333 272.225 5.824C272.129 5.75467 272.052 5.66933 271.993 5.568L271.633 4.936C272.577 4.072 273.716 3.64 275.049 3.64C275.529 3.64 275.956 3.72 276.329 3.88C276.708 4.03467 277.028 4.25333 277.289 4.536C277.551 4.81333 277.748 5.14667 277.881 5.536C278.02 5.92533 278.089 6.352 278.089 6.816V12ZM274.249 10.768C274.452 10.768 274.639 10.7493 274.809 10.712C274.98 10.6747 275.14 10.6187 275.289 10.544C275.444 10.4693 275.591 10.3787 275.729 10.272C275.873 10.16 276.017 10.0293 276.161 9.88V8.496C275.585 8.52267 275.103 8.57333 274.713 8.648C274.329 8.71733 274.02 8.808 273.785 8.92C273.551 9.032 273.383 9.16267 273.281 9.312C273.185 9.46133 273.137 9.624 273.137 9.8C273.137 10.1467 273.239 10.3947 273.441 10.544C273.649 10.6933 273.919 10.768 274.249 10.768Z" fill="#4F4F4F"/>
<path d="M282.663 14.256C282.605 14.3947 282.527 14.4987 282.431 14.568C282.341 14.6427 282.199 14.68 282.007 14.68H280.535L282.071 11.392L278.751 3.792H280.479C280.639 3.792 280.762 3.82933 280.847 3.904C280.933 3.97867 280.997 4.064 281.039 4.16L282.791 8.416C282.85 8.55467 282.901 8.69867 282.943 8.848C282.986 8.99733 283.023 9.14667 283.055 9.296C283.098 9.14133 283.143 8.992 283.191 8.848C283.245 8.704 283.301 8.55733 283.359 8.408L285.007 4.16C285.05 4.05333 285.119 3.96533 285.215 3.896C285.317 3.82667 285.429 3.792 285.551 3.792H287.135L282.663 14.256Z" fill="#4F4F4F"/>
<path d="M296.144 7.888C296.144 8.53867 296.064 9.12533 295.904 9.648C295.744 10.1707 295.504 10.616 295.184 10.984C294.87 11.352 294.475 11.6347 294 11.832C293.526 12.0293 292.974 12.128 292.344 12.128C292.056 12.128 291.774 12.1093 291.496 12.072C291.219 12.04 290.928 11.9867 290.624 11.912L290.736 10.632C290.747 10.5147 290.79 10.4213 290.864 10.352C290.944 10.2773 291.059 10.24 291.208 10.24C291.299 10.24 291.416 10.2587 291.56 10.296C291.71 10.3333 291.896 10.352 292.12 10.352C292.424 10.352 292.694 10.3093 292.928 10.224C293.163 10.1333 293.358 9.992 293.512 9.8C293.672 9.608 293.792 9.36 293.872 9.056C293.952 8.74667 293.992 8.37333 293.992 7.936V0.431999H296.144V7.888Z" fill="#4F4F4F"/>
<path d="M300.169 3.792V9.008C300.169 9.50933 300.283 9.89867 300.513 10.176C300.747 10.448 301.097 10.584 301.561 10.584C301.902 10.584 302.222 10.5093 302.521 10.36C302.819 10.2053 303.102 9.99467 303.369 9.728V3.792H305.345V12H304.137C303.881 12 303.713 11.88 303.633 11.64L303.497 10.984C303.326 11.1547 303.15 11.312 302.969 11.456C302.787 11.5947 302.593 11.7147 302.385 11.816C302.182 11.912 301.961 11.9867 301.721 12.04C301.486 12.0987 301.233 12.128 300.961 12.128C300.513 12.128 300.115 12.0533 299.769 11.904C299.427 11.7493 299.139 11.5333 298.905 11.256C298.67 10.9787 298.491 10.6507 298.369 10.272C298.251 9.888 298.193 9.46667 298.193 9.008V3.792H300.169Z" fill="#4F4F4F"/>
<path d="M307.454 12V3.792H308.662C308.918 3.792 309.086 3.912 309.166 4.152L309.302 4.8C309.468 4.62933 309.641 4.47467 309.822 4.336C310.009 4.19733 310.204 4.07733 310.406 3.976C310.614 3.87467 310.836 3.79733 311.07 3.744C311.305 3.69067 311.561 3.664 311.838 3.664C312.286 3.664 312.684 3.74133 313.03 3.896C313.377 4.04533 313.665 4.25867 313.894 4.536C314.129 4.808 314.305 5.136 314.422 5.52C314.545 5.89867 314.606 6.31733 314.606 6.776V12H312.63V6.776C312.63 6.27467 312.513 5.888 312.278 5.616C312.049 5.33867 311.702 5.2 311.238 5.2C310.897 5.2 310.577 5.27733 310.278 5.432C309.98 5.58667 309.697 5.79733 309.43 6.064V12H307.454Z" fill="#4F4F4F"/>
<path d="M319.94 3.664C320.457 3.664 320.932 3.74667 321.364 3.912C321.801 4.07733 322.177 4.32 322.492 4.64C322.807 4.95467 323.052 5.344 323.228 5.808C323.404 6.26667 323.492 6.792 323.492 7.384C323.492 7.53333 323.484 7.65867 323.468 7.76C323.457 7.856 323.433 7.93333 323.396 7.992C323.364 8.04533 323.319 8.08533 323.26 8.112C323.201 8.13333 323.127 8.144 323.036 8.144H317.964C318.023 8.98667 318.249 9.60533 318.644 10C319.039 10.3947 319.561 10.592 320.212 10.592C320.532 10.592 320.807 10.5547 321.036 10.48C321.271 10.4053 321.473 10.3227 321.644 10.232C321.82 10.1413 321.972 10.0587 322.1 9.984C322.233 9.90933 322.361 9.872 322.484 9.872C322.564 9.872 322.633 9.888 322.692 9.92C322.751 9.952 322.801 9.99733 322.844 10.056L323.42 10.776C323.201 11.032 322.956 11.248 322.684 11.424C322.412 11.5947 322.127 11.7333 321.828 11.84C321.535 11.9413 321.233 12.0133 320.924 12.056C320.62 12.0987 320.324 12.12 320.036 12.12C319.465 12.12 318.935 12.0267 318.444 11.84C317.953 11.648 317.527 11.368 317.164 11C316.801 10.6267 316.516 10.168 316.308 9.624C316.1 9.07467 315.996 8.44 315.996 7.72C315.996 7.16 316.087 6.63467 316.268 6.144C316.449 5.648 316.708 5.21867 317.044 4.856C317.385 4.488 317.799 4.19733 318.284 3.984C318.775 3.77067 319.327 3.664 319.94 3.664ZM319.98 5.08C319.404 5.08 318.953 5.24267 318.628 5.568C318.303 5.89333 318.095 6.35467 318.004 6.952H321.716C321.716 6.696 321.681 6.456 321.612 6.232C321.543 6.00267 321.436 5.80267 321.292 5.632C321.148 5.46133 320.967 5.328 320.748 5.232C320.529 5.13067 320.273 5.08 319.98 5.08Z" fill="#4F4F4F"/>
<path d="M336.013 6.216C336.013 7.224 335.903 8.10133 335.685 8.848C335.471 9.58933 335.173 10.2027 334.789 10.688C334.41 11.1733 333.959 11.536 333.437 11.776C332.919 12.0107 332.359 12.128 331.757 12.128C331.154 12.128 330.594 12.0107 330.077 11.776C329.565 11.536 329.119 11.1733 328.741 10.688C328.362 10.2027 328.066 9.58933 327.853 8.848C327.639 8.10133 327.533 7.224 327.533 6.216C327.533 5.20267 327.639 4.32533 327.853 3.584C328.066 2.84267 328.362 2.22933 328.741 1.744C329.119 1.25867 329.565 0.898666 330.077 0.664C330.594 0.424 331.154 0.304 331.757 0.304C332.359 0.304 332.919 0.424 333.437 0.664C333.959 0.898666 334.41 1.25867 334.789 1.744C335.173 2.22933 335.471 2.84267 335.685 3.584C335.903 4.32533 336.013 5.20267 336.013 6.216ZM333.973 6.216C333.973 5.37867 333.911 4.68533 333.789 4.136C333.666 3.58667 333.501 3.14933 333.293 2.824C333.09 2.49867 332.855 2.272 332.589 2.144C332.322 2.01067 332.045 1.944 331.757 1.944C331.474 1.944 331.199 2.01067 330.933 2.144C330.671 2.272 330.439 2.49867 330.237 2.824C330.034 3.14933 329.871 3.58667 329.749 4.136C329.631 4.68533 329.573 5.37867 329.573 6.216C329.573 7.05333 329.631 7.74667 329.749 8.296C329.871 8.84533 330.034 9.28267 330.237 9.608C330.439 9.93333 330.671 10.1627 330.933 10.296C331.199 10.424 331.474 10.488 331.757 10.488C332.045 10.488 332.322 10.424 332.589 10.296C332.855 10.1627 333.09 9.93333 333.293 9.608C333.501 9.28267 333.666 8.84533 333.789 8.296C333.911 7.74667 333.973 7.05333 333.973 6.216Z" fill="#4F4F4F"/>
<path d="M340.654 7.384C340.254 7.384 339.862 7.31467 339.478 7.176C339.094 7.03733 338.75 6.82933 338.446 6.552C338.147 6.26933 337.907 5.92267 337.726 5.512C337.545 5.096 337.454 4.61067 337.454 4.056C337.454 3.53867 337.55 3.05333 337.742 2.6C337.934 2.14667 338.203 1.74933 338.55 1.408C338.897 1.06667 339.313 0.797333 339.798 0.599999C340.283 0.402666 340.819 0.304 341.406 0.304C341.998 0.304 342.529 0.397333 342.998 0.584C343.473 0.770666 343.875 1.032 344.206 1.368C344.542 1.704 344.798 2.10667 344.974 2.576C345.155 3.04533 345.246 3.56 345.246 4.12C345.246 4.47733 345.214 4.816 345.15 5.136C345.091 5.456 345.003 5.76533 344.886 6.064C344.774 6.35733 344.638 6.64533 344.478 6.928C344.318 7.20533 344.139 7.48533 343.942 7.768L341.294 11.544C341.203 11.672 341.067 11.7813 340.886 11.872C340.71 11.9573 340.507 12 340.278 12H338.462L342.054 7.512C342.145 7.4 342.23 7.29067 342.31 7.184C342.39 7.07733 342.467 6.97067 342.542 6.864C342.275 7.03467 341.982 7.16533 341.662 7.256C341.342 7.34133 341.006 7.384 340.654 7.384ZM343.35 3.92C343.35 3.60533 343.302 3.32533 343.206 3.08C343.11 2.82933 342.974 2.61867 342.798 2.448C342.622 2.27733 342.411 2.14667 342.166 2.056C341.926 1.96533 341.662 1.92 341.374 1.92C341.075 1.92 340.806 1.97067 340.566 2.072C340.326 2.168 340.121 2.304 339.95 2.48C339.785 2.656 339.657 2.86667 339.566 3.112C339.475 3.352 339.43 3.616 339.43 3.904C339.43 4.54933 339.595 5.04267 339.926 5.384C340.262 5.72 340.737 5.888 341.35 5.888C341.67 5.888 341.953 5.83733 342.198 5.736C342.449 5.63467 342.659 5.496 342.83 5.32C343.001 5.144 343.129 4.936 343.214 4.696C343.305 4.456 343.35 4.19733 343.35 3.92Z" fill="#4F4F4F"/>
<path d="M346.335 10.784C346.335 10.6347 346.362 10.496 346.415 10.368C346.474 10.2347 346.554 10.12 346.655 10.024C346.757 9.92267 346.879 9.84533 347.023 9.792C347.167 9.73333 347.325 9.704 347.495 9.704C347.698 9.704 347.874 9.74133 348.023 9.816C348.173 9.88533 348.298 9.984 348.399 10.112C348.501 10.2347 348.575 10.3787 348.623 10.544C348.671 10.704 348.695 10.8747 348.695 11.056C348.695 11.312 348.655 11.5813 348.575 11.864C348.501 12.1467 348.389 12.4293 348.239 12.712C348.09 12.9947 347.906 13.2693 347.687 13.536C347.469 13.8027 347.218 14.048 346.935 14.272L346.591 13.96C346.495 13.88 346.447 13.7813 346.447 13.664C346.447 13.6213 346.461 13.5733 346.487 13.52C346.519 13.4667 346.557 13.4187 346.599 13.376C346.658 13.312 346.73 13.232 346.815 13.136C346.901 13.0453 346.986 12.9387 347.071 12.816C347.157 12.6987 347.234 12.568 347.303 12.424C347.378 12.2853 347.431 12.136 347.463 11.976C347.298 11.976 347.146 11.9467 347.007 11.888C346.869 11.824 346.749 11.7387 346.647 11.632C346.551 11.5253 346.474 11.4 346.415 11.256C346.362 11.112 346.335 10.9547 346.335 10.784Z" fill="#4F4F4F"/>
<path d="M357.199 0.304C357.732 0.304 358.22 0.384 358.663 0.544C359.105 0.698666 359.484 0.919999 359.799 1.208C360.113 1.496 360.359 1.84267 360.535 2.248C360.711 2.65333 360.799 3.104 360.799 3.6C360.799 4.02667 360.735 4.42133 360.607 4.784C360.484 5.14667 360.316 5.49333 360.103 5.824C359.895 6.15467 359.649 6.47467 359.367 6.784C359.084 7.09333 358.788 7.408 358.479 7.728L355.871 10.392C356.127 10.3173 356.377 10.2613 356.623 10.224C356.868 10.1813 357.103 10.16 357.327 10.16H360.295C360.508 10.16 360.676 10.2213 360.799 10.344C360.927 10.4613 360.991 10.6187 360.991 10.816V12H353.055V11.344C353.055 11.2107 353.081 11.072 353.135 10.928C353.193 10.784 353.284 10.6507 353.407 10.528L356.919 7.008C357.212 6.70933 357.473 6.424 357.703 6.152C357.937 5.88 358.132 5.61067 358.287 5.344C358.447 5.07733 358.567 4.808 358.647 4.536C358.732 4.25867 358.775 3.968 358.775 3.664C358.775 3.38667 358.735 3.144 358.655 2.936C358.575 2.72267 358.46 2.544 358.311 2.4C358.161 2.256 357.983 2.14933 357.775 2.08C357.572 2.00533 357.343 1.968 357.087 1.968C356.612 1.968 356.22 2.088 355.911 2.328C355.607 2.568 355.393 2.89067 355.271 3.296C355.212 3.49867 355.124 3.64533 355.007 3.736C354.889 3.82133 354.74 3.864 354.559 3.864C354.479 3.864 354.391 3.856 354.295 3.84L353.255 3.656C353.335 3.10133 353.489 2.616 353.719 2.2C353.948 1.77867 354.233 1.42933 354.575 1.152C354.921 0.869333 355.316 0.658666 355.759 0.52C356.207 0.376 356.687 0.304 357.199 0.304Z" fill="#4F4F4F"/>
<path d="M370.544 6.216C370.544 7.224 370.435 8.10133 370.216 8.848C370.003 9.58933 369.704 10.2027 369.32 10.688C368.941 11.1733 368.491 11.536 367.968 11.776C367.451 12.0107 366.891 12.128 366.288 12.128C365.685 12.128 365.125 12.0107 364.608 11.776C364.096 11.536 363.651 11.1733 363.272 10.688C362.893 10.2027 362.597 9.58933 362.384 8.848C362.171 8.10133 362.064 7.224 362.064 6.216C362.064 5.20267 362.171 4.32533 362.384 3.584C362.597 2.84267 362.893 2.22933 363.272 1.744C363.651 1.25867 364.096 0.898666 364.608 0.664C365.125 0.424 365.685 0.304 366.288 0.304C366.891 0.304 367.451 0.424 367.968 0.664C368.491 0.898666 368.941 1.25867 369.32 1.744C369.704 2.22933 370.003 2.84267 370.216 3.584C370.435 4.32533 370.544 5.20267 370.544 6.216ZM368.504 6.216C368.504 5.37867 368.443 4.68533 368.32 4.136C368.197 3.58667 368.032 3.14933 367.824 2.824C367.621 2.49867 367.387 2.272 367.12 2.144C366.853 2.01067 366.576 1.944 366.288 1.944C366.005 1.944 365.731 2.01067 365.464 2.144C365.203 2.272 364.971 2.49867 364.768 2.824C364.565 3.14933 364.403 3.58667 364.28 4.136C364.163 4.68533 364.104 5.37867 364.104 6.216C364.104 7.05333 364.163 7.74667 364.28 8.296C364.403 8.84533 364.565 9.28267 364.768 9.608C364.971 9.93333 365.203 10.1627 365.464 10.296C365.731 10.424 366.005 10.488 366.288 10.488C366.576 10.488 366.853 10.424 367.12 10.296C367.387 10.1627 367.621 9.93333 367.824 9.608C368.032 9.28267 368.197 8.84533 368.32 8.296C368.443 7.74667 368.504 7.05333 368.504 6.216Z" fill="#4F4F4F"/>
<path d="M375.761 0.304C376.295 0.304 376.783 0.384 377.225 0.544C377.668 0.698666 378.047 0.919999 378.361 1.208C378.676 1.496 378.921 1.84267 379.097 2.248C379.273 2.65333 379.361 3.104 379.361 3.6C379.361 4.02667 379.297 4.42133 379.169 4.784C379.047 5.14667 378.879 5.49333 378.665 5.824C378.457 6.15467 378.212 6.47467 377.929 6.784C377.647 7.09333 377.351 7.408 377.041 7.728L374.433 10.392C374.689 10.3173 374.94 10.2613 375.185 10.224C375.431 10.1813 375.665 10.16 375.889 10.16H378.857C379.071 10.16 379.239 10.2213 379.361 10.344C379.489 10.4613 379.553 10.6187 379.553 10.816V12H371.617V11.344C371.617 11.2107 371.644 11.072 371.697 10.928C371.756 10.784 371.847 10.6507 371.969 10.528L375.481 7.008C375.775 6.70933 376.036 6.424 376.265 6.152C376.5 5.88 376.695 5.61067 376.849 5.344C377.009 5.07733 377.129 4.808 377.209 4.536C377.295 4.25867 377.337 3.968 377.337 3.664C377.337 3.38667 377.297 3.144 377.217 2.936C377.137 2.72267 377.023 2.544 376.873 2.4C376.724 2.256 376.545 2.14933 376.337 2.08C376.135 2.00533 375.905 1.968 375.649 1.968C375.175 1.968 374.783 2.088 374.473 2.328C374.169 2.568 373.956 2.89067 373.833 3.296C373.775 3.49867 373.687 3.64533 373.569 3.736C373.452 3.82133 373.303 3.864 373.121 3.864C373.041 3.864 372.953 3.856 372.857 3.84L371.817 3.656C371.897 3.10133 372.052 2.616 372.281 2.2C372.511 1.77867 372.796 1.42933 373.137 1.152C373.484 0.869333 373.879 0.658666 374.321 0.52C374.769 0.376 375.249 0.304 375.761 0.304Z" fill="#4F4F4F"/>
<path d="M382.378 10.52H384.722V3.776C384.722 3.51467 384.73 3.24 384.746 2.952L383.082 4.344C383.013 4.40267 382.941 4.44267 382.866 4.464C382.797 4.48533 382.728 4.496 382.658 4.496C382.552 4.496 382.453 4.47467 382.362 4.432C382.277 4.384 382.213 4.33067 382.17 4.272L381.546 3.416L385.074 0.415999H386.698V10.52H388.778V12H382.378V10.52Z" fill="#4F4F4F"/>
<path fill-rule="evenodd" clip-rule="evenodd" d="M217.002 5.5L0.00216684 6.5L-0.00244141 5.50001L216.998 4.50001L217.002 5.5Z" fill="#4F4F4F"/>
<path fill-rule="evenodd" clip-rule="evenodd" d="M658 7.49998L418 7.5L418 6.5L658 6.49998L658 7.49998Z" fill="#4F4F4F"/>
</svg>
