<svg width="101" height="40" viewBox="0 0 101 40" fill="none" xmlns="http://www.w3.org/2000/svg">
<rect x="1.09973" width="98.8005" height="40" rx="5" fill="#2F80ED"/>
<path d="M18.2277 14.3119C18.3237 14.3119 18.4037 14.3173 18.4677 14.3279C18.5317 14.3333 18.5877 14.3493 18.6357 14.3759C18.6891 14.3973 18.7397 14.4319 18.7877 14.4799C18.8357 14.5226 18.8891 14.5813 18.9477 14.6559L25.0197 22.3919C24.9984 22.2053 24.9824 22.0239 24.9717 21.8479C24.9664 21.6666 24.9637 21.4986 24.9637 21.3439V14.3119H26.8597V25.8799H25.7477C25.5771 25.8799 25.4357 25.8533 25.3237 25.7999C25.2117 25.7466 25.1024 25.6506 24.9957 25.5119L18.9477 17.8079C18.9637 17.9786 18.9744 18.1493 18.9797 18.3199C18.9904 18.4853 18.9957 18.6373 18.9957 18.7759V25.8799H17.0997V14.3119H18.2277Z" fill="white"/>
<path d="M32.4735 17.5439C32.9908 17.5439 33.4655 17.6266 33.8975 17.7919C34.3348 17.9573 34.7108 18.1999 35.0255 18.5199C35.3401 18.8346 35.5855 19.2239 35.7615 19.6879C35.9375 20.1466 36.0255 20.6719 36.0255 21.2639C36.0255 21.4133 36.0175 21.5386 36.0015 21.6399C35.9908 21.7359 35.9668 21.8133 35.9295 21.8719C35.8975 21.9253 35.8521 21.9653 35.7935 21.9919C35.7348 22.0133 35.6601 22.0239 35.5695 22.0239H30.4975C30.5561 22.8666 30.7828 23.4853 31.1775 23.8799C31.5721 24.2746 32.0948 24.4719 32.7455 24.4719C33.0655 24.4719 33.3401 24.4346 33.5695 24.3599C33.8041 24.2853 34.0068 24.2026 34.1775 24.1119C34.3535 24.0213 34.5055 23.9386 34.6335 23.8639C34.7668 23.7893 34.8948 23.7519 35.0175 23.7519C35.0975 23.7519 35.1668 23.7679 35.2255 23.7999C35.2841 23.8319 35.3348 23.8773 35.3775 23.9359L35.9535 24.6559C35.7348 24.9119 35.4895 25.1279 35.2175 25.3039C34.9455 25.4746 34.6601 25.6133 34.3615 25.7199C34.0681 25.8213 33.7668 25.8933 33.4575 25.9359C33.1535 25.9786 32.8575 25.9999 32.5695 25.9999C31.9988 25.9999 31.4681 25.9066 30.9775 25.7199C30.4868 25.5279 30.0601 25.2479 29.6975 24.8799C29.3348 24.5066 29.0495 24.0479 28.8415 23.5039C28.6335 22.9546 28.5295 22.3199 28.5295 21.5999C28.5295 21.0399 28.6201 20.5146 28.8015 20.0239C28.9828 19.5279 29.2415 19.0986 29.5775 18.7359C29.9188 18.3679 30.3321 18.0773 30.8175 17.8639C31.3081 17.6506 31.8601 17.5439 32.4735 17.5439ZM32.5135 18.9599C31.9375 18.9599 31.4868 19.1226 31.1615 19.4479C30.8361 19.7733 30.6281 20.2346 30.5375 20.8319H34.2495C34.2495 20.5759 34.2148 20.3359 34.1455 20.1119C34.0761 19.8826 33.9695 19.6826 33.8255 19.5119C33.6815 19.3413 33.5001 19.2079 33.2815 19.1119C33.0628 19.0106 32.8068 18.9599 32.5135 18.9599Z" fill="white"/>
<path d="M36.6284 17.6719H38.1964C38.3457 17.6719 38.471 17.7066 38.5724 17.7759C38.6737 17.8453 38.7377 17.9333 38.7644 18.0399L39.9404 22.4239C40.0044 22.6639 40.055 22.8986 40.0924 23.1279C40.135 23.3573 40.175 23.5866 40.2124 23.8159C40.271 23.5866 40.3324 23.3573 40.3964 23.1279C40.4657 22.8986 40.5377 22.6639 40.6124 22.4239L41.9724 18.0239C42.0044 17.9173 42.0684 17.8293 42.1644 17.7599C42.2604 17.6906 42.3724 17.6559 42.5004 17.6559H43.3724C43.5164 17.6559 43.6364 17.6906 43.7324 17.7599C43.8284 17.8293 43.8924 17.9173 43.9244 18.0239L45.2684 22.5039C45.3377 22.7333 45.399 22.9573 45.4524 23.1759C45.511 23.3893 45.567 23.6053 45.6204 23.8239C45.6577 23.5946 45.6977 23.3653 45.7404 23.1359C45.7884 22.9066 45.847 22.6693 45.9164 22.4239L47.1324 18.0399C47.159 17.9333 47.223 17.8453 47.3244 17.7759C47.4257 17.7066 47.543 17.6719 47.6764 17.6719H49.1724L46.5724 25.8799H44.9804C44.8097 25.8799 44.687 25.7626 44.6124 25.5279L43.1324 20.7839C43.0844 20.6293 43.039 20.4746 42.9964 20.3199C42.959 20.1599 42.927 20.0026 42.9004 19.8479C42.8684 20.0079 42.8337 20.1679 42.7964 20.3279C42.759 20.4826 42.7164 20.6399 42.6684 20.7999L41.1724 25.5279C41.0977 25.7626 40.9537 25.8799 40.7404 25.8799H39.2284L36.6284 17.6719Z" fill="white"/>
<path d="M61.6424 14.3119V16.0799H58.1624V25.8799H56.0104V16.0799H52.5144V14.3119H61.6424Z" fill="white"/>
<path d="M67.3729 25.8799H66.4849C66.2982 25.8799 66.1515 25.8533 66.0449 25.7999C65.9382 25.7413 65.8582 25.6266 65.8049 25.4559L65.6289 24.8719C65.4209 25.0586 65.2155 25.2239 65.0129 25.3679C64.8155 25.5066 64.6102 25.6239 64.3969 25.7199C64.1835 25.8159 63.9569 25.8879 63.7169 25.9359C63.4769 25.9839 63.2102 26.0079 62.9169 26.0079C62.5702 26.0079 62.2502 25.9626 61.9569 25.8719C61.6635 25.7759 61.4102 25.6346 61.1969 25.4479C60.9889 25.2613 60.8262 25.0293 60.7089 24.7519C60.5915 24.4746 60.5329 24.1519 60.5329 23.7839C60.5329 23.4746 60.6129 23.1706 60.7729 22.8719C60.9382 22.5679 61.2102 22.2959 61.5889 22.0559C61.9675 21.8106 62.4715 21.6079 63.1009 21.4479C63.7302 21.2879 64.5115 21.1973 65.4449 21.1759V20.6959C65.4449 20.1466 65.3275 19.7413 65.0929 19.4799C64.8635 19.2133 64.5275 19.0799 64.0849 19.0799C63.7649 19.0799 63.4982 19.1173 63.2849 19.1919C63.0715 19.2666 62.8849 19.3519 62.7249 19.4479C62.5702 19.5386 62.4262 19.6213 62.2929 19.6959C62.1595 19.7706 62.0129 19.8079 61.8529 19.8079C61.7195 19.8079 61.6049 19.7733 61.5089 19.7039C61.4129 19.6346 61.3355 19.5493 61.2769 19.4479L60.9169 18.8159C61.8609 17.9519 62.9995 17.5199 64.3329 17.5199C64.8129 17.5199 65.2395 17.5999 65.6129 17.7599C65.9915 17.9146 66.3115 18.1333 66.5729 18.4159C66.8342 18.6933 67.0315 19.0266 67.1649 19.4159C67.3035 19.8053 67.3729 20.2319 67.3729 20.6959V25.8799ZM63.5329 24.6479C63.7355 24.6479 63.9222 24.6293 64.0929 24.5919C64.2635 24.5546 64.4235 24.4986 64.5729 24.4239C64.7275 24.3493 64.8742 24.2586 65.0129 24.1519C65.1569 24.0399 65.3009 23.9093 65.4449 23.7599V22.3759C64.8689 22.4026 64.3862 22.4533 63.9969 22.5279C63.6129 22.5973 63.3035 22.6879 63.0689 22.7999C62.8342 22.9119 62.6662 23.0426 62.5649 23.1919C62.4689 23.3413 62.4209 23.5039 62.4209 23.6799C62.4209 24.0266 62.5222 24.2746 62.7249 24.4239C62.9329 24.5733 63.2022 24.6479 63.5329 24.6479Z" fill="white"/>
<path d="M74.1879 19.2719C74.1345 19.3573 74.0785 19.4186 74.0199 19.4559C73.9612 19.4879 73.8865 19.5039 73.7959 19.5039C73.6999 19.5039 73.5959 19.4773 73.4839 19.4239C73.3772 19.3706 73.2519 19.3119 73.1079 19.2479C72.9639 19.1786 72.7985 19.1173 72.6119 19.0639C72.4305 19.0106 72.2145 18.9839 71.9639 18.9839C71.5745 18.9839 71.2679 19.0666 71.0439 19.2319C70.8199 19.3973 70.7079 19.6133 70.7079 19.8799C70.7079 20.0559 70.7639 20.2053 70.8759 20.3279C70.9932 20.4453 71.1452 20.5493 71.3319 20.6399C71.5239 20.7306 71.7399 20.8133 71.9799 20.8879C72.2199 20.9573 72.4652 21.0346 72.7159 21.1199C72.9665 21.2053 73.2119 21.3039 73.4519 21.4159C73.6919 21.5226 73.9052 21.6613 74.0919 21.8319C74.2839 21.9973 74.4359 22.1973 74.5479 22.4319C74.6652 22.6666 74.7239 22.9493 74.7239 23.2799C74.7239 23.6746 74.6519 24.0399 74.5079 24.3759C74.3639 24.7066 74.1532 24.9946 73.8759 25.2399C73.5985 25.4799 73.2545 25.6693 72.8439 25.8079C72.4385 25.9413 71.9719 26.0079 71.4439 26.0079C71.1612 26.0079 70.8839 25.9813 70.6119 25.9279C70.3452 25.8799 70.0865 25.8106 69.8359 25.7199C69.5905 25.6293 69.3612 25.5226 69.1479 25.3999C68.9399 25.2773 68.7559 25.1439 68.5959 24.9999L69.0519 24.2479C69.1105 24.1573 69.1799 24.0879 69.2599 24.0399C69.3399 23.9919 69.4412 23.9679 69.5639 23.9679C69.6865 23.9679 69.8012 24.0026 69.9079 24.0719C70.0199 24.1413 70.1479 24.2159 70.2919 24.2959C70.4359 24.3759 70.6039 24.4506 70.7959 24.5199C70.9932 24.5893 71.2412 24.6239 71.5399 24.6239C71.7745 24.6239 71.9745 24.5973 72.1399 24.5439C72.3105 24.4853 72.4492 24.4106 72.5559 24.3199C72.6679 24.2293 72.7479 24.1253 72.7959 24.0079C72.8492 23.8853 72.8759 23.7599 72.8759 23.6319C72.8759 23.4399 72.8172 23.2826 72.6999 23.1599C72.5879 23.0373 72.4359 22.9306 72.2439 22.8399C72.0572 22.7493 71.8412 22.6693 71.5959 22.5999C71.3559 22.5253 71.1079 22.4453 70.8519 22.3599C70.6012 22.2746 70.3532 22.1759 70.1079 22.0639C69.8679 21.9466 69.6519 21.7999 69.4599 21.6239C69.2732 21.4479 69.1212 21.2319 69.0039 20.9759C68.8919 20.7199 68.8359 20.4106 68.8359 20.0479C68.8359 19.7119 68.9025 19.3919 69.0359 19.0879C69.1692 18.7839 69.3639 18.5199 69.6199 18.2959C69.8812 18.0666 70.2039 17.8853 70.5879 17.7519C70.9772 17.6133 71.4252 17.5439 71.9319 17.5439C72.4972 17.5439 73.0119 17.6373 73.4759 17.8239C73.9399 18.0106 74.3265 18.2559 74.6359 18.5599L74.1879 19.2719Z" fill="white"/>
<path d="M78.3002 13.9919V20.7999H78.6682C78.8016 20.7999 78.9056 20.7813 78.9802 20.7439C79.0549 20.7066 79.1349 20.6373 79.2202 20.5359L81.2602 18.0159C81.3509 17.9093 81.4469 17.8266 81.5482 17.7679C81.6496 17.7039 81.7829 17.6719 81.9482 17.6719H83.7562L81.2042 20.7199C81.1136 20.8319 81.0202 20.9359 80.9242 21.0319C80.8282 21.1226 80.7242 21.2026 80.6122 21.2719C80.7242 21.3519 80.8229 21.4453 80.9082 21.5519C80.9936 21.6586 81.0789 21.7733 81.1642 21.8959L83.9002 25.8799H82.1162C81.9616 25.8799 81.8309 25.8533 81.7242 25.7999C81.6176 25.7466 81.5216 25.6559 81.4362 25.5279L79.3482 22.4159C79.2682 22.2933 79.1882 22.2133 79.1082 22.1759C79.0282 22.1386 78.9082 22.1199 78.7482 22.1199H78.3002V25.8799H76.3242V13.9919H78.3002Z" fill="white"/>
</svg>
