<svg width="142" height="34" viewBox="0 0 142 34" fill="none" xmlns="http://www.w3.org/2000/svg">
<rect width="141.832" height="33.888" rx="5" fill="#E9F3FF"/>
<path d="M13.128 11.432C13.224 11.432 13.304 11.4373 13.368 11.448C13.432 11.4533 13.488 11.4693 13.536 11.496C13.5893 11.5173 13.64 11.552 13.688 11.6C13.736 11.6427 13.7893 11.7013 13.848 11.776L19.92 19.512C19.8987 19.3253 19.8827 19.144 19.872 18.968C19.8667 18.7867 19.864 18.6187 19.864 18.464V11.432H21.76V23H20.648C20.4773 23 20.336 22.9733 20.224 22.92C20.112 22.8667 20.0027 22.7707 19.896 22.632L13.848 14.928C13.864 15.0987 13.8747 15.2693 13.88 15.44C13.8907 15.6053 13.896 15.7573 13.896 15.896V23H12V11.432H13.128Z" fill="#2F80ED"/>
<path d="M27.3737 14.664C27.8911 14.664 28.3658 14.7467 28.7978 14.912C29.2351 15.0773 29.6111 15.32 29.9258 15.64C30.2404 15.9547 30.4858 16.344 30.6618 16.808C30.8377 17.2667 30.9258 17.792 30.9258 18.384C30.9258 18.5333 30.9178 18.6587 30.9018 18.76C30.8911 18.856 30.8671 18.9333 30.8298 18.992C30.7978 19.0453 30.7524 19.0853 30.6938 19.112C30.6351 19.1333 30.5604 19.144 30.4698 19.144H25.3977C25.4564 19.9867 25.6831 20.6053 26.0778 21C26.4724 21.3947 26.9951 21.592 27.6458 21.592C27.9658 21.592 28.2404 21.5547 28.4698 21.48C28.7044 21.4053 28.9071 21.3227 29.0778 21.232C29.2538 21.1413 29.4058 21.0587 29.5338 20.984C29.6671 20.9093 29.7951 20.872 29.9178 20.872C29.9978 20.872 30.0671 20.888 30.1258 20.92C30.1844 20.952 30.2351 20.9973 30.2778 21.056L30.8538 21.776C30.6351 22.032 30.3898 22.248 30.1178 22.424C29.8458 22.5947 29.5604 22.7333 29.2618 22.84C28.9684 22.9413 28.6671 23.0133 28.3577 23.056C28.0537 23.0987 27.7578 23.12 27.4698 23.12C26.8991 23.12 26.3684 23.0267 25.8777 22.84C25.3871 22.648 24.9604 22.368 24.5977 22C24.2351 21.6267 23.9497 21.168 23.7417 20.624C23.5337 20.0747 23.4297 19.44 23.4297 18.72C23.4297 18.16 23.5204 17.6347 23.7017 17.144C23.8831 16.648 24.1418 16.2187 24.4777 15.856C24.8191 15.488 25.2324 15.1973 25.7177 14.984C26.2084 14.7707 26.7604 14.664 27.3737 14.664ZM27.4138 16.08C26.8378 16.08 26.3871 16.2427 26.0617 16.568C25.7364 16.8933 25.5284 17.3547 25.4377 17.952H29.1498C29.1498 17.696 29.1151 17.456 29.0458 17.232C28.9764 17.0027 28.8698 16.8027 28.7257 16.632C28.5817 16.4613 28.4004 16.328 28.1818 16.232C27.9631 16.1307 27.7071 16.08 27.4138 16.08Z" fill="#2F80ED"/>
<path d="M31.5286 14.792H33.0966C33.246 14.792 33.3713 14.8267 33.4726 14.896C33.574 14.9653 33.638 15.0533 33.6646 15.16L34.8406 19.544C34.9046 19.784 34.9553 20.0187 34.9926 20.248C35.0353 20.4773 35.0753 20.7067 35.1126 20.936C35.1713 20.7067 35.2326 20.4773 35.2966 20.248C35.366 20.0187 35.438 19.784 35.5126 19.544L36.8726 15.144C36.9046 15.0373 36.9686 14.9493 37.0646 14.88C37.1606 14.8107 37.2726 14.776 37.4006 14.776H38.2726C38.4166 14.776 38.5366 14.8107 38.6326 14.88C38.7286 14.9493 38.7926 15.0373 38.8246 15.144L40.1686 19.624C40.238 19.8533 40.2993 20.0773 40.3526 20.296C40.4113 20.5093 40.4673 20.7253 40.5206 20.944C40.558 20.7147 40.598 20.4853 40.6406 20.256C40.6886 20.0267 40.7473 19.7893 40.8166 19.544L42.0326 15.16C42.0593 15.0533 42.1233 14.9653 42.2246 14.896C42.326 14.8267 42.4433 14.792 42.5766 14.792H44.0726L41.4726 23H39.8806C39.71 23 39.5873 22.8827 39.5126 22.648L38.0326 17.904C37.9846 17.7493 37.9393 17.5947 37.8966 17.44C37.8593 17.28 37.8273 17.1227 37.8006 16.968C37.7686 17.128 37.734 17.288 37.6966 17.448C37.6593 17.6027 37.6166 17.76 37.5686 17.92L36.0726 22.648C35.998 22.8827 35.854 23 35.6406 23H34.1286L31.5286 14.792Z" fill="#2F80ED"/>
<path d="M54.1986 18.2C54.2893 18.3707 54.372 18.5493 54.4466 18.736C54.5266 18.9173 54.604 19.1013 54.6786 19.288C54.7533 19.096 54.8306 18.9067 54.9106 18.72C54.9906 18.5333 55.076 18.3547 55.1666 18.184L58.5906 11.776C58.6333 11.696 58.676 11.632 58.7186 11.584C58.7666 11.536 58.8173 11.5013 58.8706 11.48C58.9293 11.4587 58.9933 11.4453 59.0626 11.44C59.132 11.4347 59.2146 11.432 59.3106 11.432H60.9346V23H59.0386V15.528C59.0386 15.3893 59.0413 15.2373 59.0466 15.072C59.0573 14.9067 59.0706 14.7387 59.0866 14.568L55.5906 21.128C55.5106 21.2773 55.4066 21.3947 55.2786 21.48C55.1506 21.56 55.0013 21.6 54.8306 21.6H54.5346C54.364 21.6 54.2146 21.56 54.0866 21.48C53.9586 21.3947 53.8546 21.2773 53.7746 21.128L50.2306 14.544C50.252 14.72 50.2653 14.8933 50.2706 15.064C50.2813 15.2293 50.2866 15.384 50.2866 15.528V23H48.3906V11.432H50.0146C50.1106 11.432 50.1933 11.4347 50.2626 11.44C50.332 11.4453 50.3933 11.4587 50.4466 11.48C50.5053 11.5013 50.5586 11.536 50.6066 11.584C50.6546 11.632 50.7 11.696 50.7426 11.776L54.1986 18.2Z" fill="#2F80ED"/>
<path d="M66.5456 14.664C67.063 14.664 67.5376 14.7467 67.9696 14.912C68.407 15.0773 68.783 15.32 69.0976 15.64C69.4123 15.9547 69.6576 16.344 69.8336 16.808C70.0096 17.2667 70.0976 17.792 70.0976 18.384C70.0976 18.5333 70.0896 18.6587 70.0736 18.76C70.063 18.856 70.039 18.9333 70.0016 18.992C69.9696 19.0453 69.9243 19.0853 69.8656 19.112C69.807 19.1333 69.7323 19.144 69.6416 19.144H64.5696C64.6283 19.9867 64.855 20.6053 65.2496 21C65.6443 21.3947 66.167 21.592 66.8176 21.592C67.1376 21.592 67.4123 21.5547 67.6416 21.48C67.8763 21.4053 68.079 21.3227 68.2496 21.232C68.4256 21.1413 68.5776 21.0587 68.7056 20.984C68.839 20.9093 68.967 20.872 69.0896 20.872C69.1696 20.872 69.239 20.888 69.2976 20.92C69.3563 20.952 69.407 20.9973 69.4496 21.056L70.0256 21.776C69.807 22.032 69.5616 22.248 69.2896 22.424C69.0176 22.5947 68.7323 22.7333 68.4336 22.84C68.1403 22.9413 67.839 23.0133 67.5296 23.056C67.2256 23.0987 66.9296 23.12 66.6416 23.12C66.071 23.12 65.5403 23.0267 65.0496 22.84C64.559 22.648 64.1323 22.368 63.7696 22C63.407 21.6267 63.1216 21.168 62.9136 20.624C62.7056 20.0747 62.6016 19.44 62.6016 18.72C62.6016 18.16 62.6923 17.6347 62.8736 17.144C63.055 16.648 63.3136 16.2187 63.6496 15.856C63.991 15.488 64.4043 15.1973 64.8896 14.984C65.3803 14.7707 65.9323 14.664 66.5456 14.664ZM66.5856 16.08C66.0096 16.08 65.559 16.2427 65.2336 16.568C64.9083 16.8933 64.7003 17.3547 64.6096 17.952H68.3216C68.3216 17.696 68.287 17.456 68.2176 17.232C68.1483 17.0027 68.0416 16.8027 67.8976 16.632C67.7536 16.4613 67.5723 16.328 67.3536 16.232C67.135 16.1307 66.879 16.08 66.5856 16.08Z" fill="#2F80ED"/>
<path d="M76.5725 16.392C76.5192 16.4773 76.4632 16.5387 76.4045 16.576C76.3458 16.608 76.2712 16.624 76.1805 16.624C76.0845 16.624 75.9805 16.5973 75.8685 16.544C75.7618 16.4907 75.6365 16.432 75.4925 16.368C75.3485 16.2987 75.1832 16.2373 74.9965 16.184C74.8152 16.1307 74.5992 16.104 74.3485 16.104C73.9592 16.104 73.6525 16.1867 73.4285 16.352C73.2045 16.5173 73.0925 16.7333 73.0925 17C73.0925 17.176 73.1485 17.3253 73.2605 17.448C73.3778 17.5653 73.5298 17.6693 73.7165 17.76C73.9085 17.8507 74.1245 17.9333 74.3645 18.008C74.6045 18.0773 74.8498 18.1547 75.1005 18.24C75.3512 18.3253 75.5965 18.424 75.8365 18.536C76.0765 18.6427 76.2898 18.7813 76.4765 18.952C76.6685 19.1173 76.8205 19.3173 76.9325 19.552C77.0498 19.7867 77.1085 20.0693 77.1085 20.4C77.1085 20.7947 77.0365 21.16 76.8925 21.496C76.7485 21.8267 76.5378 22.1147 76.2605 22.36C75.9832 22.6 75.6392 22.7893 75.2285 22.928C74.8232 23.0613 74.3565 23.128 73.8285 23.128C73.5458 23.128 73.2685 23.1013 72.9965 23.048C72.7298 23 72.4712 22.9307 72.2205 22.84C71.9752 22.7493 71.7458 22.6427 71.5325 22.52C71.3245 22.3973 71.1405 22.264 70.9805 22.12L71.4365 21.368C71.4952 21.2773 71.5645 21.208 71.6445 21.16C71.7245 21.112 71.8258 21.088 71.9485 21.088C72.0712 21.088 72.1858 21.1227 72.2925 21.192C72.4045 21.2613 72.5325 21.336 72.6765 21.416C72.8205 21.496 72.9885 21.5707 73.1805 21.64C73.3778 21.7093 73.6258 21.744 73.9245 21.744C74.1592 21.744 74.3592 21.7173 74.5245 21.664C74.6952 21.6053 74.8338 21.5307 74.9405 21.44C75.0525 21.3493 75.1325 21.2453 75.1805 21.128C75.2338 21.0053 75.2605 20.88 75.2605 20.752C75.2605 20.56 75.2018 20.4027 75.0845 20.28C74.9725 20.1573 74.8205 20.0507 74.6285 19.96C74.4418 19.8693 74.2258 19.7893 73.9805 19.72C73.7405 19.6453 73.4925 19.5653 73.2365 19.48C72.9858 19.3947 72.7378 19.296 72.4925 19.184C72.2525 19.0667 72.0365 18.92 71.8445 18.744C71.6578 18.568 71.5058 18.352 71.3885 18.096C71.2765 17.84 71.2205 17.5307 71.2205 17.168C71.2205 16.832 71.2872 16.512 71.4205 16.208C71.5538 15.904 71.7485 15.64 72.0045 15.416C72.2658 15.1867 72.5885 15.0053 72.9725 14.872C73.3618 14.7333 73.8098 14.664 74.3165 14.664C74.8818 14.664 75.3965 14.7573 75.8605 14.944C76.3245 15.1307 76.7112 15.376 77.0205 15.68L76.5725 16.392Z" fill="#2F80ED"/>
<path d="M83.5569 16.392C83.5035 16.4773 83.4475 16.5387 83.3889 16.576C83.3302 16.608 83.2555 16.624 83.1649 16.624C83.0689 16.624 82.9649 16.5973 82.8529 16.544C82.7462 16.4907 82.6209 16.432 82.4769 16.368C82.3329 16.2987 82.1675 16.2373 81.9809 16.184C81.7995 16.1307 81.5835 16.104 81.3329 16.104C80.9435 16.104 80.6369 16.1867 80.4129 16.352C80.1889 16.5173 80.0769 16.7333 80.0769 17C80.0769 17.176 80.1329 17.3253 80.2449 17.448C80.3622 17.5653 80.5142 17.6693 80.7009 17.76C80.8929 17.8507 81.1089 17.9333 81.3489 18.008C81.5889 18.0773 81.8342 18.1547 82.0849 18.24C82.3355 18.3253 82.5809 18.424 82.8209 18.536C83.0609 18.6427 83.2742 18.7813 83.4609 18.952C83.6529 19.1173 83.8049 19.3173 83.9169 19.552C84.0342 19.7867 84.0929 20.0693 84.0929 20.4C84.0929 20.7947 84.0209 21.16 83.8769 21.496C83.7329 21.8267 83.5222 22.1147 83.2449 22.36C82.9675 22.6 82.6235 22.7893 82.2129 22.928C81.8075 23.0613 81.3409 23.128 80.8129 23.128C80.5302 23.128 80.2529 23.1013 79.9809 23.048C79.7142 23 79.4555 22.9307 79.2049 22.84C78.9595 22.7493 78.7302 22.6427 78.5169 22.52C78.3089 22.3973 78.1249 22.264 77.9649 22.12L78.4209 21.368C78.4795 21.2773 78.5489 21.208 78.6289 21.16C78.7089 21.112 78.8102 21.088 78.9329 21.088C79.0555 21.088 79.1702 21.1227 79.2769 21.192C79.3889 21.2613 79.5169 21.336 79.6609 21.416C79.8049 21.496 79.9729 21.5707 80.1649 21.64C80.3622 21.7093 80.6102 21.744 80.9089 21.744C81.1435 21.744 81.3435 21.7173 81.5089 21.664C81.6795 21.6053 81.8182 21.5307 81.9249 21.44C82.0369 21.3493 82.1169 21.2453 82.1649 21.128C82.2182 21.0053 82.2449 20.88 82.2449 20.752C82.2449 20.56 82.1862 20.4027 82.0689 20.28C81.9569 20.1573 81.8049 20.0507 81.6129 19.96C81.4262 19.8693 81.2102 19.7893 80.9649 19.72C80.7249 19.6453 80.4769 19.5653 80.2209 19.48C79.9702 19.3947 79.7222 19.296 79.4769 19.184C79.2369 19.0667 79.0209 18.92 78.8289 18.744C78.6422 18.568 78.4902 18.352 78.3729 18.096C78.2609 17.84 78.2049 17.5307 78.2049 17.168C78.2049 16.832 78.2715 16.512 78.4049 16.208C78.5382 15.904 78.7329 15.64 78.9889 15.416C79.2502 15.1867 79.5729 15.0053 79.9569 14.872C80.3462 14.7333 80.7942 14.664 81.3009 14.664C81.8662 14.664 82.3809 14.7573 82.8449 14.944C83.3089 15.1307 83.6955 15.376 84.0049 15.68L83.5569 16.392Z" fill="#2F80ED"/>
<path d="M92.1012 23H91.2132C91.0266 23 90.8799 22.9733 90.7733 22.92C90.6666 22.8613 90.5866 22.7467 90.5332 22.576L90.3573 21.992C90.1493 22.1787 89.9439 22.344 89.7412 22.488C89.5439 22.6267 89.3386 22.744 89.1253 22.84C88.9119 22.936 88.6852 23.008 88.4453 23.056C88.2053 23.104 87.9386 23.128 87.6452 23.128C87.2986 23.128 86.9786 23.0827 86.6852 22.992C86.3919 22.896 86.1386 22.7547 85.9252 22.568C85.7172 22.3813 85.5546 22.1493 85.4372 21.872C85.3199 21.5947 85.2613 21.272 85.2613 20.904C85.2613 20.5947 85.3412 20.2907 85.5013 19.992C85.6666 19.688 85.9386 19.416 86.3173 19.176C86.6959 18.9307 87.1999 18.728 87.8293 18.568C88.4586 18.408 89.2399 18.3173 90.1732 18.296V17.816C90.1732 17.2667 90.0559 16.8613 89.8213 16.6C89.5919 16.3333 89.2559 16.2 88.8132 16.2C88.4932 16.2 88.2266 16.2373 88.0133 16.312C87.7999 16.3867 87.6133 16.472 87.4532 16.568C87.2986 16.6587 87.1546 16.7413 87.0212 16.816C86.8879 16.8907 86.7413 16.928 86.5813 16.928C86.4479 16.928 86.3333 16.8933 86.2373 16.824C86.1413 16.7547 86.0639 16.6693 86.0052 16.568L85.6452 15.936C86.5892 15.072 87.7279 14.64 89.0612 14.64C89.5413 14.64 89.9679 14.72 90.3412 14.88C90.7199 15.0347 91.0399 15.2533 91.3013 15.536C91.5626 15.8133 91.7599 16.1467 91.8932 16.536C92.0319 16.9253 92.1012 17.352 92.1012 17.816V23ZM88.2613 21.768C88.4639 21.768 88.6506 21.7493 88.8213 21.712C88.9919 21.6747 89.1519 21.6187 89.3013 21.544C89.4559 21.4693 89.6026 21.3787 89.7412 21.272C89.8852 21.16 90.0293 21.0293 90.1732 20.88V19.496C89.5972 19.5227 89.1146 19.5733 88.7253 19.648C88.3412 19.7173 88.0319 19.808 87.7972 19.92C87.5626 20.032 87.3946 20.1627 87.2933 20.312C87.1973 20.4613 87.1493 20.624 87.1493 20.8C87.1493 21.1467 87.2506 21.3947 87.4532 21.544C87.6612 21.6933 87.9306 21.768 88.2613 21.768Z" fill="#2F80ED"/>
<path d="M96.8843 14.648C97.2363 14.648 97.5669 14.6853 97.8763 14.76C98.1856 14.8293 98.4683 14.9333 98.7243 15.072H101.084V15.808C101.084 15.9307 101.052 16.0267 100.988 16.096C100.924 16.1653 100.815 16.2133 100.66 16.24L99.9242 16.376C99.9776 16.5147 100.018 16.6613 100.044 16.816C100.076 16.9707 100.092 17.1333 100.092 17.304C100.092 17.7093 100.01 18.0773 99.8443 18.408C99.6842 18.7333 99.4603 19.0107 99.1722 19.24C98.8896 19.4693 98.5509 19.648 98.1562 19.776C97.7669 19.8987 97.3429 19.96 96.8843 19.96C96.5749 19.96 96.2736 19.9307 95.9802 19.872C95.7243 20.0267 95.5963 20.2 95.5963 20.392C95.5963 20.5573 95.6709 20.68 95.8203 20.76C95.9749 20.8347 96.1749 20.888 96.4202 20.92C96.6709 20.952 96.9536 20.9733 97.2682 20.984C97.5829 20.9893 97.9056 21.0053 98.2363 21.032C98.5669 21.0587 98.8896 21.1067 99.2043 21.176C99.5189 21.24 99.7989 21.344 100.044 21.488C100.295 21.632 100.495 21.8293 100.644 22.08C100.799 22.3253 100.876 22.6427 100.876 23.032C100.876 23.3947 100.786 23.7467 100.604 24.088C100.428 24.4293 100.17 24.7333 99.8282 25C99.4922 25.2667 99.0789 25.48 98.5882 25.64C98.0976 25.8053 97.5376 25.888 96.9082 25.888C96.2842 25.888 95.7429 25.8267 95.2842 25.704C94.8256 25.5867 94.4443 25.4267 94.1403 25.224C93.8416 25.0267 93.6176 24.7973 93.4683 24.536C93.3189 24.2747 93.2442 24.0027 93.2442 23.72C93.2442 23.336 93.3616 23.0133 93.5963 22.752C93.8309 22.4907 94.1562 22.2827 94.5723 22.128C94.3696 22.016 94.2069 21.8667 94.0843 21.68C93.9616 21.4933 93.9003 21.2507 93.9003 20.952C93.9003 20.8293 93.9216 20.704 93.9642 20.576C94.0069 20.4427 94.0709 20.312 94.1562 20.184C94.2469 20.056 94.3589 19.936 94.4922 19.824C94.6256 19.7067 94.7829 19.6027 94.9642 19.512C94.5482 19.288 94.2202 18.9893 93.9802 18.616C93.7456 18.2427 93.6283 17.8053 93.6283 17.304C93.6283 16.8987 93.7082 16.5333 93.8682 16.208C94.0336 15.8773 94.2602 15.5973 94.5482 15.368C94.8416 15.1333 95.1856 14.9547 95.5803 14.832C95.9803 14.7093 96.4149 14.648 96.8843 14.648ZM99.0523 23.368C99.0523 23.208 99.0042 23.0773 98.9082 22.976C98.8122 22.8747 98.6816 22.7973 98.5163 22.744C98.3509 22.6853 98.1562 22.6427 97.9323 22.616C97.7136 22.5893 97.4789 22.5707 97.2282 22.56C96.9829 22.544 96.7269 22.5307 96.4603 22.52C96.1989 22.504 95.9456 22.48 95.7002 22.448C95.4762 22.5707 95.2949 22.7173 95.1562 22.888C95.0229 23.0533 94.9563 23.2453 94.9563 23.464C94.9563 23.608 94.9909 23.7413 95.0602 23.864C95.1349 23.992 95.2496 24.1013 95.4043 24.192C95.5643 24.2827 95.7696 24.352 96.0202 24.4C96.2709 24.4533 96.5776 24.48 96.9403 24.48C97.3083 24.48 97.6256 24.4507 97.8923 24.392C98.1589 24.3387 98.3776 24.2613 98.5482 24.16C98.7243 24.064 98.8522 23.9467 98.9323 23.808C99.0123 23.6747 99.0523 23.528 99.0523 23.368ZM96.8843 18.696C97.1296 18.696 97.3429 18.664 97.5243 18.6C97.7056 18.5307 97.8549 18.4373 97.9723 18.32C98.0949 18.2027 98.1856 18.0613 98.2442 17.896C98.3083 17.7307 98.3402 17.5493 98.3402 17.352C98.3402 16.9467 98.2176 16.6267 97.9723 16.392C97.7323 16.152 97.3696 16.032 96.8843 16.032C96.3989 16.032 96.0336 16.152 95.7883 16.392C95.5483 16.6267 95.4283 16.9467 95.4283 17.352C95.4283 17.544 95.4576 17.7227 95.5163 17.888C95.5803 18.0533 95.6709 18.1973 95.7883 18.32C95.9109 18.4373 96.0629 18.5307 96.2442 18.6C96.4309 18.664 96.6443 18.696 96.8843 18.696Z" fill="#2F80ED"/>
<path d="M105.717 14.664C106.235 14.664 106.71 14.7467 107.142 14.912C107.579 15.0773 107.955 15.32 108.27 15.64C108.584 15.9547 108.829 16.344 109.006 16.808C109.182 17.2667 109.27 17.792 109.27 18.384C109.27 18.5333 109.261 18.6587 109.245 18.76C109.235 18.856 109.211 18.9333 109.174 18.992C109.142 19.0453 109.096 19.0853 109.037 19.112C108.979 19.1333 108.904 19.144 108.813 19.144H103.742C103.8 19.9867 104.027 20.6053 104.422 21C104.816 21.3947 105.339 21.592 105.99 21.592C106.31 21.592 106.584 21.5547 106.813 21.48C107.048 21.4053 107.251 21.3227 107.422 21.232C107.598 21.1413 107.75 21.0587 107.878 20.984C108.011 20.9093 108.139 20.872 108.261 20.872C108.341 20.872 108.411 20.888 108.469 20.92C108.528 20.952 108.579 20.9973 108.621 21.056L109.198 21.776C108.979 22.032 108.734 22.248 108.462 22.424C108.189 22.5947 107.904 22.7333 107.605 22.84C107.312 22.9413 107.011 23.0133 106.701 23.056C106.397 23.0987 106.102 23.12 105.813 23.12C105.243 23.12 104.712 23.0267 104.222 22.84C103.731 22.648 103.304 22.368 102.941 22C102.579 21.6267 102.294 21.168 102.086 20.624C101.878 20.0747 101.773 19.44 101.773 18.72C101.773 18.16 101.864 17.6347 102.046 17.144C102.227 16.648 102.486 16.2187 102.822 15.856C103.163 15.488 103.576 15.1973 104.062 14.984C104.552 14.7707 105.104 14.664 105.717 14.664ZM105.757 16.08C105.182 16.08 104.731 16.2427 104.406 16.568C104.08 16.8933 103.872 17.3547 103.782 17.952H107.493C107.493 17.696 107.459 17.456 107.39 17.232C107.32 17.0027 107.214 16.8027 107.07 16.632C106.926 16.4613 106.744 16.328 106.525 16.232C106.307 16.1307 106.051 16.08 105.757 16.08Z" fill="#2F80ED"/>
<path d="M127.165 16L126.225 15.06L122.499 18.78V10.6667H121.165V18.78L117.445 15.0533L116.499 16L121.832 21.3333L127.165 16Z" fill="#F2F2F2"/>
</svg>
