<svg width="658" height="18" viewBox="0 0 658 18" fill="none" xmlns="http://www.w3.org/2000/svg">
<path d="M262.296 3.43201C262.392 3.43201 262.472 3.43734 262.536 3.44801C262.6 3.45334 262.656 3.46934 262.704 3.49601C262.757 3.51734 262.808 3.55201 262.856 3.60001C262.904 3.64267 262.957 3.70134 263.016 3.77601L269.088 11.512C269.067 11.3253 269.051 11.144 269.04 10.968C269.035 10.7867 269.032 10.6187 269.032 10.464V3.43201H270.928V15H269.816C269.645 15 269.504 14.9733 269.392 14.92C269.28 14.8667 269.171 14.7707 269.064 14.632L263.016 6.92801C263.032 7.09867 263.043 7.26934 263.048 7.44001C263.059 7.60534 263.064 7.75734 263.064 7.89601V15H261.168V3.43201H262.296Z" fill="#EB5757"/>
<path d="M276.542 6.66401C277.059 6.66401 277.534 6.74667 277.966 6.91201C278.403 7.07734 278.779 7.32001 279.094 7.64001C279.408 7.95467 279.654 8.34401 279.83 8.80801C280.006 9.26667 280.094 9.79201 280.094 10.384C280.094 10.5333 280.086 10.6587 280.07 10.76C280.059 10.856 280.035 10.9333 279.998 10.992C279.966 11.0453 279.92 11.0853 279.862 11.112C279.803 11.1333 279.728 11.144 279.638 11.144H274.566C274.624 11.9867 274.851 12.6053 275.246 13C275.64 13.3947 276.163 13.592 276.814 13.592C277.134 13.592 277.408 13.5547 277.638 13.48C277.872 13.4053 278.075 13.3227 278.246 13.232C278.422 13.1413 278.574 13.0587 278.702 12.984C278.835 12.9093 278.963 12.872 279.086 12.872C279.166 12.872 279.235 12.888 279.294 12.92C279.352 12.952 279.403 12.9973 279.446 13.056L280.022 13.776C279.803 14.032 279.558 14.248 279.286 14.424C279.014 14.5947 278.728 14.7333 278.43 14.84C278.136 14.9413 277.835 15.0133 277.526 15.056C277.222 15.0987 276.926 15.12 276.638 15.12C276.067 15.12 275.536 15.0267 275.046 14.84C274.555 14.648 274.128 14.368 273.766 14C273.403 13.6267 273.118 13.168 272.91 12.624C272.702 12.0747 272.598 11.44 272.598 10.72C272.598 10.16 272.688 9.63467 272.87 9.14401C273.051 8.64801 273.31 8.21867 273.646 7.85601C273.987 7.48801 274.4 7.19734 274.886 6.98401C275.376 6.77067 275.928 6.66401 276.542 6.66401ZM276.582 8.08001C276.006 8.08001 275.555 8.24267 275.23 8.56801C274.904 8.89334 274.696 9.35467 274.606 9.95201H278.318C278.318 9.69601 278.283 9.45601 278.214 9.23201C278.144 9.00267 278.038 8.80267 277.894 8.63201C277.75 8.46134 277.568 8.32801 277.35 8.23201C277.131 8.13067 276.875 8.08001 276.582 8.08001Z" fill="#EB5757"/>
<path d="M280.697 6.79201H282.265C282.414 6.79201 282.539 6.82667 282.641 6.89601C282.742 6.96534 282.806 7.05334 282.833 7.16001L284.009 11.544C284.073 11.784 284.123 12.0187 284.161 12.248C284.203 12.4773 284.243 12.7067 284.281 12.936C284.339 12.7067 284.401 12.4773 284.465 12.248C284.534 12.0187 284.606 11.784 284.681 11.544L286.041 7.14401C286.073 7.03734 286.137 6.94934 286.233 6.88001C286.329 6.81067 286.441 6.77601 286.569 6.77601H287.441C287.585 6.77601 287.705 6.81067 287.801 6.88001C287.897 6.94934 287.961 7.03734 287.993 7.14401L289.337 11.624C289.406 11.8533 289.467 12.0773 289.521 12.296C289.579 12.5093 289.635 12.7253 289.689 12.944C289.726 12.7147 289.766 12.4853 289.809 12.256C289.857 12.0267 289.915 11.7893 289.985 11.544L291.201 7.16001C291.227 7.05334 291.291 6.96534 291.393 6.89601C291.494 6.82667 291.611 6.79201 291.745 6.79201H293.241L290.641 15H289.049C288.878 15 288.755 14.8827 288.681 14.648L287.201 9.90401C287.153 9.74934 287.107 9.59467 287.065 9.44001C287.027 9.28001 286.995 9.12267 286.969 8.96801C286.937 9.12801 286.902 9.28801 286.865 9.44801C286.827 9.60267 286.785 9.76001 286.737 9.92001L285.241 14.648C285.166 14.8827 285.022 15 284.809 15H283.297L280.697 6.79201Z" fill="#EB5757"/>
<path d="M303.367 10.2C303.457 10.3707 303.54 10.5493 303.615 10.736C303.695 10.9173 303.772 11.1013 303.847 11.288C303.921 11.096 303.999 10.9067 304.079 10.72C304.159 10.5333 304.244 10.3547 304.335 10.184L307.759 3.77601C307.801 3.69601 307.844 3.63201 307.887 3.58401C307.935 3.53601 307.985 3.50134 308.039 3.48001C308.097 3.45867 308.161 3.44534 308.231 3.44001C308.3 3.43467 308.383 3.43201 308.479 3.43201H310.103V15H308.207V7.52801C308.207 7.38934 308.209 7.23734 308.215 7.07201C308.225 6.90667 308.239 6.73867 308.255 6.56801L304.759 13.128C304.679 13.2773 304.575 13.3947 304.447 13.48C304.319 13.56 304.169 13.6 303.999 13.6H303.703C303.532 13.6 303.383 13.56 303.255 13.48C303.127 13.3947 303.023 13.2773 302.943 13.128L299.399 6.54401C299.42 6.72001 299.433 6.89334 299.439 7.06401C299.449 7.22934 299.455 7.38401 299.455 7.52801V15H297.559V3.43201H299.183C299.279 3.43201 299.361 3.43467 299.431 3.44001C299.5 3.44534 299.561 3.45867 299.615 3.48001C299.673 3.50134 299.727 3.53601 299.775 3.58401C299.823 3.63201 299.868 3.69601 299.911 3.77601L303.367 10.2Z" fill="#EB5757"/>
<path d="M315.714 6.66401C316.231 6.66401 316.706 6.74667 317.138 6.91201C317.575 7.07734 317.951 7.32001 318.266 7.64001C318.58 7.95467 318.826 8.34401 319.002 8.80801C319.178 9.26667 319.266 9.79201 319.266 10.384C319.266 10.5333 319.258 10.6587 319.242 10.76C319.231 10.856 319.207 10.9333 319.17 10.992C319.138 11.0453 319.092 11.0853 319.034 11.112C318.975 11.1333 318.9 11.144 318.81 11.144H313.738C313.796 11.9867 314.023 12.6053 314.418 13C314.812 13.3947 315.335 13.592 315.986 13.592C316.306 13.592 316.58 13.5547 316.81 13.48C317.044 13.4053 317.247 13.3227 317.418 13.232C317.594 13.1413 317.746 13.0587 317.874 12.984C318.007 12.9093 318.135 12.872 318.258 12.872C318.338 12.872 318.407 12.888 318.466 12.92C318.524 12.952 318.575 12.9973 318.618 13.056L319.194 13.776C318.975 14.032 318.73 14.248 318.458 14.424C318.186 14.5947 317.9 14.7333 317.602 14.84C317.308 14.9413 317.007 15.0133 316.698 15.056C316.394 15.0987 316.098 15.12 315.81 15.12C315.239 15.12 314.708 15.0267 314.218 14.84C313.727 14.648 313.3 14.368 312.938 14C312.575 13.6267 312.29 13.168 312.082 12.624C311.874 12.0747 311.77 11.44 311.77 10.72C311.77 10.16 311.86 9.63467 312.042 9.14401C312.223 8.64801 312.482 8.21867 312.818 7.85601C313.159 7.48801 313.572 7.19734 314.058 6.98401C314.548 6.77067 315.1 6.66401 315.714 6.66401ZM315.754 8.08001C315.178 8.08001 314.727 8.24267 314.402 8.56801C314.076 8.89334 313.868 9.35467 313.778 9.95201H317.49C317.49 9.69601 317.455 9.45601 317.386 9.23201C317.316 9.00267 317.21 8.80267 317.066 8.63201C316.922 8.46134 316.74 8.32801 316.522 8.23201C316.303 8.13067 316.047 8.08001 315.754 8.08001Z" fill="#EB5757"/>
<path d="M325.74 8.39201C325.687 8.47734 325.631 8.53867 325.572 8.57601C325.514 8.60801 325.439 8.62401 325.348 8.62401C325.252 8.62401 325.148 8.59734 325.036 8.54401C324.93 8.49067 324.804 8.43201 324.66 8.36801C324.516 8.29867 324.351 8.23734 324.164 8.18401C323.983 8.13067 323.767 8.10401 323.516 8.10401C323.127 8.10401 322.82 8.18667 322.596 8.35201C322.372 8.51734 322.26 8.73334 322.26 9.00001C322.26 9.17601 322.316 9.32534 322.428 9.44801C322.546 9.56534 322.698 9.66934 322.884 9.76001C323.076 9.85067 323.292 9.93334 323.532 10.008C323.772 10.0773 324.018 10.1547 324.268 10.24C324.519 10.3253 324.764 10.424 325.004 10.536C325.244 10.6427 325.458 10.7813 325.644 10.952C325.836 11.1173 325.988 11.3173 326.1 11.552C326.218 11.7867 326.276 12.0693 326.276 12.4C326.276 12.7947 326.204 13.16 326.06 13.496C325.916 13.8267 325.706 14.1147 325.428 14.36C325.151 14.6 324.807 14.7893 324.396 14.928C323.991 15.0613 323.524 15.128 322.996 15.128C322.714 15.128 322.436 15.1013 322.164 15.048C321.898 15 321.639 14.9307 321.388 14.84C321.143 14.7493 320.914 14.6427 320.7 14.52C320.492 14.3973 320.308 14.264 320.148 14.12L320.604 13.368C320.663 13.2773 320.732 13.208 320.812 13.16C320.892 13.112 320.994 13.088 321.116 13.088C321.239 13.088 321.354 13.1227 321.46 13.192C321.572 13.2613 321.7 13.336 321.844 13.416C321.988 13.496 322.156 13.5707 322.348 13.64C322.546 13.7093 322.794 13.744 323.092 13.744C323.327 13.744 323.527 13.7173 323.692 13.664C323.863 13.6053 324.002 13.5307 324.108 13.44C324.22 13.3493 324.3 13.2453 324.348 13.128C324.402 13.0053 324.428 12.88 324.428 12.752C324.428 12.56 324.37 12.4027 324.252 12.28C324.14 12.1573 323.988 12.0507 323.796 11.96C323.61 11.8693 323.394 11.7893 323.148 11.72C322.908 11.6453 322.66 11.5653 322.404 11.48C322.154 11.3947 321.906 11.296 321.66 11.184C321.42 11.0667 321.204 10.92 321.012 10.744C320.826 10.568 320.674 10.352 320.556 10.096C320.444 9.84001 320.388 9.53067 320.388 9.16801C320.388 8.83201 320.455 8.51201 320.588 8.20801C320.722 7.90401 320.916 7.64001 321.172 7.41601C321.434 7.18667 321.756 7.00534 322.14 6.87201C322.53 6.73334 322.978 6.66401 323.484 6.66401C324.05 6.66401 324.564 6.75734 325.028 6.94401C325.492 7.13067 325.879 7.37601 326.188 7.68001L325.74 8.39201Z" fill="#EB5757"/>
<path d="M332.725 8.39201C332.672 8.47734 332.616 8.53867 332.557 8.57601C332.498 8.60801 332.424 8.62401 332.333 8.62401C332.237 8.62401 332.133 8.59734 332.021 8.54401C331.914 8.49067 331.789 8.43201 331.645 8.36801C331.501 8.29867 331.336 8.23734 331.149 8.18401C330.968 8.13067 330.752 8.10401 330.501 8.10401C330.112 8.10401 329.805 8.18667 329.581 8.35201C329.357 8.51734 329.245 8.73334 329.245 9.00001C329.245 9.17601 329.301 9.32534 329.413 9.44801C329.53 9.56534 329.682 9.66934 329.869 9.76001C330.061 9.85067 330.277 9.93334 330.517 10.008C330.757 10.0773 331.002 10.1547 331.253 10.24C331.504 10.3253 331.749 10.424 331.989 10.536C332.229 10.6427 332.442 10.7813 332.629 10.952C332.821 11.1173 332.973 11.3173 333.085 11.552C333.202 11.7867 333.261 12.0693 333.261 12.4C333.261 12.7947 333.189 13.16 333.045 13.496C332.901 13.8267 332.69 14.1147 332.413 14.36C332.136 14.6 331.792 14.7893 331.381 14.928C330.976 15.0613 330.509 15.128 329.981 15.128C329.698 15.128 329.421 15.1013 329.149 15.048C328.882 15 328.624 14.9307 328.373 14.84C328.128 14.7493 327.898 14.6427 327.685 14.52C327.477 14.3973 327.293 14.264 327.133 14.12L327.589 13.368C327.648 13.2773 327.717 13.208 327.797 13.16C327.877 13.112 327.978 13.088 328.101 13.088C328.224 13.088 328.338 13.1227 328.445 13.192C328.557 13.2613 328.685 13.336 328.829 13.416C328.973 13.496 329.141 13.5707 329.333 13.64C329.53 13.7093 329.778 13.744 330.077 13.744C330.312 13.744 330.512 13.7173 330.677 13.664C330.848 13.6053 330.986 13.5307 331.093 13.44C331.205 13.3493 331.285 13.2453 331.333 13.128C331.386 13.0053 331.413 12.88 331.413 12.752C331.413 12.56 331.354 12.4027 331.237 12.28C331.125 12.1573 330.973 12.0507 330.781 11.96C330.594 11.8693 330.378 11.7893 330.133 11.72C329.893 11.6453 329.645 11.5653 329.389 11.48C329.138 11.3947 328.89 11.296 328.645 11.184C328.405 11.0667 328.189 10.92 327.997 10.744C327.81 10.568 327.658 10.352 327.541 10.096C327.429 9.84001 327.373 9.53067 327.373 9.16801C327.373 8.83201 327.44 8.51201 327.573 8.20801C327.706 7.90401 327.901 7.64001 328.157 7.41601C328.418 7.18667 328.741 7.00534 329.125 6.87201C329.514 6.73334 329.962 6.66401 330.469 6.66401C331.034 6.66401 331.549 6.75734 332.013 6.94401C332.477 7.13067 332.864 7.37601 333.173 7.68001L332.725 8.39201Z" fill="#EB5757"/>
<path d="M341.269 15H340.381C340.195 15 340.048 14.9733 339.941 14.92C339.835 14.8613 339.755 14.7467 339.701 14.576L339.525 13.992C339.317 14.1787 339.112 14.344 338.909 14.488C338.712 14.6267 338.507 14.744 338.293 14.84C338.08 14.936 337.853 15.008 337.613 15.056C337.373 15.104 337.107 15.128 336.813 15.128C336.467 15.128 336.147 15.0827 335.853 14.992C335.56 14.896 335.307 14.7547 335.093 14.568C334.885 14.3813 334.723 14.1493 334.605 13.872C334.488 13.5947 334.429 13.272 334.429 12.904C334.429 12.5947 334.509 12.2907 334.669 11.992C334.835 11.688 335.107 11.416 335.485 11.176C335.864 10.9307 336.368 10.728 336.997 10.568C337.627 10.408 338.408 10.3173 339.341 10.296V9.81601C339.341 9.26667 339.224 8.86134 338.989 8.60001C338.76 8.33334 338.424 8.20001 337.981 8.20001C337.661 8.20001 337.395 8.23734 337.181 8.31201C336.968 8.38667 336.781 8.47201 336.621 8.56801C336.467 8.65867 336.323 8.74134 336.189 8.81601C336.056 8.89067 335.909 8.92801 335.749 8.92801C335.616 8.92801 335.501 8.89334 335.405 8.82401C335.309 8.75467 335.232 8.66934 335.173 8.56801L334.813 7.93601C335.757 7.07201 336.896 6.64001 338.229 6.64001C338.709 6.64001 339.136 6.72001 339.509 6.88001C339.888 7.03467 340.208 7.25334 340.469 7.53601C340.731 7.81334 340.928 8.14667 341.061 8.53601C341.2 8.92534 341.269 9.35201 341.269 9.81601V15ZM337.429 13.768C337.632 13.768 337.819 13.7493 337.989 13.712C338.16 13.6747 338.32 13.6187 338.469 13.544C338.624 13.4693 338.771 13.3787 338.909 13.272C339.053 13.16 339.197 13.0293 339.341 12.88V11.496C338.765 11.5227 338.283 11.5733 337.893 11.648C337.509 11.7173 337.2 11.808 336.965 11.92C336.731 12.032 336.563 12.1627 336.461 12.312C336.365 12.4613 336.317 12.624 336.317 12.8C336.317 13.1467 336.419 13.3947 336.621 13.544C336.829 13.6933 337.099 13.768 337.429 13.768Z" fill="#EB5757"/>
<path d="M346.052 6.64801C346.404 6.64801 346.735 6.68534 347.044 6.76001C347.354 6.82934 347.636 6.93334 347.892 7.07201H350.252V7.80801C350.252 7.93067 350.22 8.02667 350.156 8.09601C350.092 8.16534 349.983 8.21334 349.828 8.24001L349.092 8.37601C349.146 8.51467 349.186 8.66134 349.212 8.81601C349.244 8.97067 349.26 9.13334 349.26 9.30401C349.26 9.70934 349.178 10.0773 349.012 10.408C348.852 10.7333 348.628 11.0107 348.34 11.24C348.058 11.4693 347.719 11.648 347.324 11.776C346.935 11.8987 346.511 11.96 346.052 11.96C345.743 11.96 345.442 11.9307 345.148 11.872C344.892 12.0267 344.764 12.2 344.764 12.392C344.764 12.5573 344.839 12.68 344.988 12.76C345.143 12.8347 345.343 12.888 345.588 12.92C345.839 12.952 346.122 12.9733 346.436 12.984C346.751 12.9893 347.074 13.0053 347.404 13.032C347.735 13.0587 348.058 13.1067 348.372 13.176C348.687 13.24 348.967 13.344 349.212 13.488C349.463 13.632 349.663 13.8293 349.812 14.08C349.967 14.3253 350.044 14.6427 350.044 15.032C350.044 15.3947 349.954 15.7467 349.772 16.088C349.596 16.4293 349.338 16.7333 348.996 17C348.66 17.2667 348.247 17.48 347.756 17.64C347.266 17.8053 346.706 17.888 346.076 17.888C345.452 17.888 344.911 17.8267 344.452 17.704C343.994 17.5867 343.612 17.4267 343.308 17.224C343.01 17.0267 342.786 16.7973 342.636 16.536C342.487 16.2747 342.412 16.0027 342.412 15.72C342.412 15.336 342.53 15.0133 342.764 14.752C342.999 14.4907 343.324 14.2827 343.74 14.128C343.538 14.016 343.375 13.8667 343.252 13.68C343.13 13.4933 343.068 13.2507 343.068 12.952C343.068 12.8293 343.09 12.704 343.132 12.576C343.175 12.4427 343.239 12.312 343.324 12.184C343.415 12.056 343.527 11.936 343.66 11.824C343.794 11.7067 343.951 11.6027 344.132 11.512C343.716 11.288 343.388 10.9893 343.148 10.616C342.914 10.2427 342.796 9.80534 342.796 9.30401C342.796 8.89867 342.876 8.53334 343.036 8.20801C343.202 7.87734 343.428 7.59734 343.716 7.36801C344.01 7.13334 344.354 6.95467 344.748 6.83201C345.148 6.70934 345.583 6.64801 346.052 6.64801ZM348.22 15.368C348.22 15.208 348.172 15.0773 348.076 14.976C347.98 14.8747 347.85 14.7973 347.684 14.744C347.519 14.6853 347.324 14.6427 347.1 14.616C346.882 14.5893 346.647 14.5707 346.396 14.56C346.151 14.544 345.895 14.5307 345.628 14.52C345.367 14.504 345.114 14.48 344.868 14.448C344.644 14.5707 344.463 14.7173 344.324 14.888C344.191 15.0533 344.124 15.2453 344.124 15.464C344.124 15.608 344.159 15.7413 344.228 15.864C344.303 15.992 344.418 16.1013 344.572 16.192C344.732 16.2827 344.938 16.352 345.188 16.4C345.439 16.4533 345.746 16.48 346.108 16.48C346.476 16.48 346.794 16.4507 347.06 16.392C347.327 16.3387 347.546 16.2613 347.716 16.16C347.892 16.064 348.02 15.9467 348.1 15.808C348.18 15.6747 348.22 15.528 348.22 15.368ZM346.052 10.696C346.298 10.696 346.511 10.664 346.692 10.6C346.874 10.5307 347.023 10.4373 347.14 10.32C347.263 10.2027 347.354 10.0613 347.412 9.89601C347.476 9.73067 347.508 9.54934 347.508 9.35201C347.508 8.94667 347.386 8.62667 347.14 8.39201C346.9 8.15201 346.538 8.03201 346.052 8.03201C345.567 8.03201 345.202 8.15201 344.956 8.39201C344.716 8.62667 344.596 8.94667 344.596 9.35201C344.596 9.54401 344.626 9.72267 344.684 9.88801C344.748 10.0533 344.839 10.1973 344.956 10.32C345.079 10.4373 345.231 10.5307 345.412 10.6C345.599 10.664 345.812 10.696 346.052 10.696Z" fill="#EB5757"/>
<path d="M354.885 6.66401C355.403 6.66401 355.877 6.74667 356.309 6.91201C356.747 7.07734 357.123 7.32001 357.437 7.64001C357.752 7.95467 357.997 8.34401 358.173 8.80801C358.349 9.26667 358.437 9.79201 358.437 10.384C358.437 10.5333 358.429 10.6587 358.413 10.76C358.403 10.856 358.379 10.9333 358.341 10.992C358.309 11.0453 358.264 11.0853 358.205 11.112C358.147 11.1333 358.072 11.144 357.981 11.144H352.909C352.968 11.9867 353.195 12.6053 353.589 13C353.984 13.3947 354.507 13.592 355.157 13.592C355.477 13.592 355.752 13.5547 355.981 13.48C356.216 13.4053 356.419 13.3227 356.589 13.232C356.765 13.1413 356.917 13.0587 357.045 12.984C357.179 12.9093 357.307 12.872 357.429 12.872C357.509 12.872 357.579 12.888 357.637 12.92C357.696 12.952 357.747 12.9973 357.789 13.056L358.365 13.776C358.147 14.032 357.901 14.248 357.629 14.424C357.357 14.5947 357.072 14.7333 356.773 14.84C356.48 14.9413 356.179 15.0133 355.869 15.056C355.565 15.0987 355.269 15.12 354.981 15.12C354.411 15.12 353.88 15.0267 353.389 14.84C352.899 14.648 352.472 14.368 352.109 14C351.747 13.6267 351.461 13.168 351.253 12.624C351.045 12.0747 350.941 11.44 350.941 10.72C350.941 10.16 351.032 9.63467 351.213 9.14401C351.395 8.64801 351.653 8.21867 351.989 7.85601C352.331 7.48801 352.744 7.19734 353.229 6.98401C353.72 6.77067 354.272 6.66401 354.885 6.66401ZM354.925 8.08001C354.349 8.08001 353.899 8.24267 353.573 8.56801C353.248 8.89334 353.04 9.35467 352.949 9.95201H356.661C356.661 9.69601 356.627 9.45601 356.557 9.23201C356.488 9.00267 356.381 8.80267 356.237 8.63201C356.093 8.46134 355.912 8.32801 355.693 8.23201C355.475 8.13067 355.219 8.08001 354.925 8.08001Z" fill="#EB5757"/>
<path d="M376.333 8L375.393 7.06L371.667 10.78V2.66667H370.333V10.78L366.613 7.05334L365.667 8L371 13.3333L376.333 8Z" fill="#F2F2F2"/>
<path fill-rule="evenodd" clip-rule="evenodd" d="M250.5 10H0.5V9H250.5V10Z" fill="#EB5757"/>
<path fill-rule="evenodd" clip-rule="evenodd" d="M658 10.5L386 10.5L386 9.5L658 9.50002L658 10.5Z" fill="#EB5757"/>
</svg>
