<svg width="66" height="40" viewBox="0 0 66 40" fill="none" xmlns="http://www.w3.org/2000/svg">
<rect width="65.9707" height="40" rx="5" fill="#2F80ED"/>
<path d="M23.08 16.4159C23.0213 16.5333 22.952 16.6159 22.872 16.6639C22.7973 16.7119 22.7067 16.7359 22.6 16.7359C22.4933 16.7359 22.3733 16.6959 22.24 16.6159C22.1067 16.5306 21.9493 16.4373 21.768 16.3359C21.5867 16.2346 21.3733 16.1439 21.128 16.0639C20.888 15.9786 20.6027 15.9359 20.272 15.9359C19.9733 15.9359 19.712 15.9733 19.488 16.0479C19.2693 16.1173 19.0827 16.2159 18.928 16.3439C18.7787 16.4719 18.6667 16.6266 18.592 16.8079C18.5173 16.9839 18.48 17.1786 18.48 17.3919C18.48 17.6639 18.5547 17.8906 18.704 18.0719C18.8587 18.2533 19.0613 18.4079 19.312 18.5359C19.5627 18.6639 19.848 18.7786 20.168 18.8799C20.488 18.9813 20.8133 19.0906 21.144 19.2079C21.48 19.3199 21.808 19.4533 22.128 19.6079C22.448 19.7573 22.7333 19.9493 22.984 20.1839C23.2347 20.4133 23.4347 20.6959 23.584 21.0319C23.7387 21.3679 23.816 21.7759 23.816 22.2559C23.816 22.7786 23.7253 23.2693 23.544 23.7279C23.368 24.1813 23.1067 24.5786 22.76 24.9199C22.4187 25.2559 22 25.5226 21.504 25.7199C21.008 25.9119 20.44 26.0079 19.8 26.0079C19.432 26.0079 19.0693 25.9706 18.712 25.8959C18.3547 25.8266 18.0107 25.7253 17.68 25.5919C17.3547 25.4586 17.048 25.2986 16.76 25.1119C16.4773 24.9253 16.224 24.7173 16 24.4879L16.624 23.4559C16.6827 23.3813 16.752 23.3199 16.832 23.2719C16.9173 23.2186 17.0107 23.1919 17.112 23.1919C17.2453 23.1919 17.3893 23.2479 17.544 23.3599C17.6987 23.4666 17.88 23.5866 18.088 23.7199C18.3013 23.8533 18.5493 23.9759 18.832 24.0879C19.12 24.1946 19.464 24.2479 19.864 24.2479C20.4773 24.2479 20.952 24.1039 21.288 23.8159C21.624 23.5226 21.792 23.1039 21.792 22.5599C21.792 22.2559 21.7147 22.0079 21.56 21.8159C21.4107 21.6239 21.2107 21.4639 20.96 21.3359C20.7093 21.2026 20.424 21.0906 20.104 20.9999C19.784 20.9093 19.4587 20.8106 19.128 20.7039C18.7973 20.5973 18.472 20.4693 18.152 20.3199C17.832 20.1706 17.5467 19.9759 17.296 19.7359C17.0453 19.4959 16.8427 19.1973 16.688 18.8399C16.5387 18.4773 16.464 18.0319 16.464 17.5039C16.464 17.0826 16.5467 16.6719 16.712 16.2719C16.8827 15.8719 17.128 15.5173 17.448 15.2079C17.7733 14.8986 18.1707 14.6506 18.64 14.4639C19.1093 14.2773 19.6453 14.1839 20.248 14.1839C20.9307 14.1839 21.56 14.2906 22.136 14.5039C22.712 14.7173 23.2027 15.0159 23.608 15.3999L23.08 16.4159Z" fill="white"/>
<path d="M28.7381 17.5439C29.2555 17.5439 29.7301 17.6266 30.1621 17.7919C30.5995 17.9573 30.9755 18.1999 31.2901 18.5199C31.6048 18.8346 31.8501 19.2239 32.0261 19.6879C32.2021 20.1466 32.2901 20.6719 32.2901 21.2639C32.2901 21.4133 32.2821 21.5386 32.2661 21.6399C32.2555 21.7359 32.2315 21.8133 32.1941 21.8719C32.1621 21.9253 32.1168 21.9653 32.0581 21.9919C31.9995 22.0133 31.9248 22.0239 31.8341 22.0239H26.7621C26.8208 22.8666 27.0475 23.4853 27.4421 23.8799C27.8368 24.2746 28.3595 24.4719 29.0101 24.4719C29.3301 24.4719 29.6048 24.4346 29.8341 24.3599C30.0688 24.2853 30.2715 24.2026 30.4421 24.1119C30.6181 24.0213 30.7701 23.9386 30.8981 23.8639C31.0315 23.7893 31.1595 23.7519 31.2821 23.7519C31.3621 23.7519 31.4315 23.7679 31.4901 23.7999C31.5488 23.8319 31.5995 23.8773 31.6421 23.9359L32.2181 24.6559C31.9995 24.9119 31.7541 25.1279 31.4821 25.3039C31.2101 25.4746 30.9248 25.6133 30.6261 25.7199C30.3328 25.8213 30.0315 25.8933 29.7221 25.9359C29.4181 25.9786 29.1221 25.9999 28.8341 25.9999C28.2635 25.9999 27.7328 25.9066 27.2421 25.7199C26.7515 25.5279 26.3248 25.2479 25.9621 24.8799C25.5995 24.5066 25.3141 24.0479 25.1061 23.5039C24.8981 22.9546 24.7941 22.3199 24.7941 21.5999C24.7941 21.0399 24.8848 20.5146 25.0661 20.0239C25.2475 19.5279 25.5061 19.0986 25.8421 18.7359C26.1835 18.3679 26.5968 18.0773 27.0821 17.8639C27.5728 17.6506 28.1248 17.5439 28.7381 17.5439ZM28.7781 18.9599C28.2021 18.9599 27.7515 19.1226 27.4261 19.4479C27.1008 19.7733 26.8928 20.2346 26.8021 20.8319H30.5141C30.5141 20.5759 30.4795 20.3359 30.4101 20.1119C30.3408 19.8826 30.2341 19.6826 30.0901 19.5119C29.9461 19.3413 29.7648 19.2079 29.5461 19.1119C29.3275 19.0106 29.0715 18.9599 28.7781 18.9599Z" fill="white"/>
<path d="M33.893 25.8799V17.6719H35.101C35.357 17.6719 35.525 17.7919 35.605 18.0319L35.741 18.6799C35.9063 18.5093 36.0797 18.3546 36.261 18.2159C36.4477 18.0773 36.6423 17.9573 36.845 17.8559C37.053 17.7546 37.2743 17.6773 37.509 17.6239C37.7437 17.5706 37.9997 17.5439 38.277 17.5439C38.725 17.5439 39.1223 17.6213 39.469 17.7759C39.8157 17.9253 40.1037 18.1386 40.333 18.4159C40.5677 18.6879 40.7437 19.0159 40.861 19.3999C40.9837 19.7786 41.045 20.1973 41.045 20.6559V25.8799H39.069V20.6559C39.069 20.1546 38.9517 19.7679 38.717 19.4959C38.4877 19.2186 38.141 19.0799 37.677 19.0799C37.3357 19.0799 37.0157 19.1573 36.717 19.3119C36.4183 19.4666 36.1357 19.6773 35.869 19.9439V25.8799H33.893Z" fill="white"/>
<path d="M48.7628 25.8799C48.5068 25.8799 48.3388 25.7599 48.2588 25.5199L48.0988 24.7279C47.9281 24.9199 47.7494 25.0933 47.5627 25.2479C47.3761 25.4026 47.1734 25.5359 46.9548 25.6479C46.7414 25.7599 46.5094 25.8453 46.2587 25.9039C46.0134 25.9679 45.7467 25.9999 45.4587 25.9999C45.0107 25.9999 44.6001 25.9066 44.2267 25.7199C43.8534 25.5333 43.5307 25.2639 43.2587 24.9119C42.9921 24.5546 42.7841 24.1146 42.6348 23.5919C42.4908 23.0693 42.4188 22.4719 42.4188 21.7999C42.4188 21.1919 42.5014 20.6266 42.6667 20.1039C42.8321 19.5813 43.0694 19.1279 43.3787 18.7439C43.6881 18.3599 44.0588 18.0613 44.4907 17.8479C44.9227 17.6293 45.4081 17.5199 45.9468 17.5199C46.4054 17.5199 46.7974 17.5946 47.1228 17.7439C47.4481 17.8879 47.7387 18.0826 47.9947 18.3279V13.9919H49.9708V25.8799H48.7628ZM46.1308 24.4319C46.5414 24.4319 46.8908 24.3466 47.1788 24.1759C47.4668 24.0053 47.7387 23.7626 47.9947 23.4479V19.7679C47.7707 19.4959 47.5254 19.3039 47.2587 19.1919C46.9974 19.0799 46.7148 19.0239 46.4107 19.0239C46.1121 19.0239 45.8401 19.0799 45.5947 19.1919C45.3547 19.3039 45.1494 19.4746 44.9788 19.7039C44.8134 19.9279 44.6854 20.2159 44.5947 20.5679C44.5041 20.9146 44.4587 21.3253 44.4587 21.7999C44.4587 22.2799 44.4961 22.6879 44.5707 23.0239C44.6507 23.3546 44.7628 23.6266 44.9067 23.8399C45.0508 24.0479 45.2267 24.1999 45.4347 24.2959C45.6427 24.3866 45.8748 24.4319 46.1308 24.4319Z" fill="white"/>
</svg>
